<?xml version="1.0" encoding="UTF-8"?>
<svg id="Layer_1" data-name="Layer 1" xmlns="http://www.w3.org/2000/svg" viewBox="0 0 512 512">
  <defs>
    <style>
      .cls-1 {
        fill: #a626a4;
      }

      .cls-1, .cls-2, .cls-3, .cls-4, .cls-5, .cls-6, .cls-7, .cls-8, .cls-9 {
        stroke-width: 0px;
      }

      .cls-2 {
        fill: #e45649;
      }

      .cls-3 {
        fill: #9ecbff;
      }

      .cls-4 {
        fill: #4078f2;
      }

      .cls-5 {
        fill: #986801;
      }

      .cls-6 {
        fill: #ffa657;
      }

      .cls-7 {
        fill: #f97583;
      }

      .cls-8 {
        fill: #b392f0;
      }

      .cls-9 {
        fill: #61afef;
      }
    </style>
  </defs>
  <circle class="cls-3" cx="255" cy="256" r="22.22"/>
  <g>
    <path class="cls-6" d="M255.9,208.3c101.56-131.69,1.55-134.3,1.55-134.3,0,0-100.04.29-1.55,134.3Z"/>
    <path class="cls-8" d="M221.9,221.62c-21.3-164.93-93.86-96.06-93.86-96.06,0,0-70.53,70.95,93.86,96.06Z"/>
    <path class="cls-5" d="M207.29,255.1c-131.68-101.57-134.29-1.56-134.29-1.56,0,0,.29,100.05,134.29,1.56Z"/>
    <path class="cls-4" d="M220.62,289.1c-164.94,21.3-96.06,93.86-96.06,93.86,0,0,70.95,70.55,96.06-93.86Z"/>
    <path class="cls-2" d="M254.09,303.71c-101.57,131.69-1.55,134.29-1.55,134.29,0,0,100.04-.29,1.55-134.29Z"/>
    <path class="cls-1" d="M288.1,290.38c21.3,164.93,93.86,96.06,93.86,96.06,0,0,70.54-70.95-93.86-96.06Z"/>
    <path class="cls-7" d="M302.71,256.91c131.69,101.56,134.29,1.55,134.29,1.55,0,0-.29-100.04-134.29-1.55Z"/>
    <path class="cls-9" d="M289.37,222.91c164.94-21.31,96.06-93.86,96.06-93.86,0,0-70.95-70.53-96.06,93.86Z"/>
  </g>
</svg>